<svg width="20" height="20" viewBox="0 0 20 20" fill="none" xmlns="http://www.w3.org/2000/svg">
<path d="M9.99984 18.3333C8.84706 18.3333 7.76373 18.1145 6.74984 17.677C5.73595 17.2395 4.854 16.6458 4.104 15.8958C3.354 15.1458 2.76025 14.2638 2.32275 13.25C1.88525 12.2361 1.6665 11.1527 1.6665 9.99996C1.6665 8.84718 1.88525 7.76385 2.32275 6.74996C2.76025 5.73607 3.354 4.85413 4.104 4.10413C4.854 3.35413 5.73595 2.76038 6.74984 2.32288C7.76373 1.88538 8.84706 1.66663 9.99984 1.66663C11.1526 1.66663 12.2359 1.88538 13.2498 2.32288C14.2637 2.76038 15.1457 3.35413 15.8957 4.10413C16.6457 4.85413 17.2394 5.73607 17.6769 6.74996C18.1144 7.76385 18.3332 8.84718 18.3332 9.99996C18.3332 11.1527 18.1144 12.2361 17.6769 13.25C17.2394 14.2638 16.6457 15.1458 15.8957 15.8958C15.1457 16.6458 14.2637 17.2395 13.2498 17.677C12.2359 18.1145 11.1526 18.3333 9.99984 18.3333ZM9.99984 16.6666C10.7498 16.6666 11.4721 16.5451 12.1665 16.302C12.8609 16.059 13.4998 15.7083 14.0832 15.25L4.74984 5.91663C4.2915 6.49996 3.94081 7.13885 3.69775 7.83329C3.4547 8.52774 3.33317 9.24996 3.33317 9.99996C3.33317 11.8611 3.979 13.4375 5.27067 14.7291C6.56234 16.0208 8.13873 16.6666 9.99984 16.6666ZM15.2498 14.0833C15.7082 13.5 16.0589 12.8611 16.3019 12.1666C16.545 11.4722 16.6665 10.75 16.6665 9.99996C16.6665 8.13885 16.0207 6.56246 14.729 5.27079C13.4373 3.97913 11.8609 3.33329 9.99984 3.33329C9.24984 3.33329 8.52762 3.45482 7.83317 3.69788C7.13873 3.94093 6.49984 4.29163 5.9165 4.74996L15.2498 14.0833Z" fill="#979797"/>
</svg>
