<svg width="24" height="24" viewBox="0 0 24 24" fill="none" xmlns="http://www.w3.org/2000/svg">
<path d="M16.1 12.6L14.65 11.15C14.8 10.3666 14.575 9.63331 13.975 8.94998C13.375 8.26664 12.6 7.99998 11.65 8.14998L10.2 6.69998C10.4833 6.56664 10.7708 6.46664 11.0625 6.39998C11.3542 6.33331 11.6667 6.29998 12 6.29998C13.25 6.29998 14.3125 6.73748 15.1875 7.61248C16.0625 8.48748 16.5 9.54998 16.5 10.8C16.5 11.1333 16.4667 11.4458 16.4 11.7375C16.3333 12.0291 16.2333 12.3166 16.1 12.6ZM19.3 15.75L17.85 14.35C18.4833 13.8666 19.0458 13.3375 19.5375 12.7625C20.0292 12.1875 20.45 11.5333 20.8 10.8C19.9667 9.11664 18.7708 7.77914 17.2125 6.78748C15.6542 5.79581 13.9167 5.29998 12 5.29998C11.5167 5.29998 11.0417 5.33331 10.575 5.39998C10.1083 5.46664 9.65 5.56664 9.2 5.69998L7.65 4.14998C8.33333 3.86664 9.03333 3.65414 9.75 3.51248C10.4667 3.37081 11.2167 3.29998 12 3.29998C14.5167 3.29998 16.7583 3.99581 18.725 5.38748C20.6917 6.77914 22.1167 8.58331 23 10.8C22.6167 11.7833 22.1125 12.6958 21.4875 13.5375C20.8625 14.3791 20.1333 15.1166 19.3 15.75ZM19.8 21.9L15.6 17.75C15.0167 17.9333 14.4292 18.0708 13.8375 18.1625C13.2458 18.2541 12.6333 18.3 12 18.3C9.48333 18.3 7.24167 17.6041 5.275 16.2125C3.30833 14.8208 1.88333 13.0166 1 10.8C1.35 9.91664 1.79167 9.09581 2.325 8.33748C2.85833 7.57914 3.46667 6.89998 4.15 6.29998L1.4 3.49998L2.8 2.09998L21.2 20.5L19.8 21.9ZM5.55 7.69998C5.06667 8.13331 4.625 8.60831 4.225 9.12498C3.825 9.64164 3.48333 10.2 3.2 10.8C4.03333 12.4833 5.22917 13.8208 6.7875 14.8125C8.34583 15.8041 10.0833 16.3 12 16.3C12.3333 16.3 12.6583 16.2791 12.975 16.2375C13.2917 16.1958 13.6167 16.15 13.95 16.1L13.05 15.15C12.8667 15.2 12.6917 15.2375 12.525 15.2625C12.3583 15.2875 12.1833 15.3 12 15.3C10.75 15.3 9.6875 14.8625 8.8125 13.9875C7.9375 13.1125 7.5 12.05 7.5 10.8C7.5 10.6166 7.5125 10.4416 7.5375 10.275C7.5625 10.1083 7.6 9.93331 7.65 9.74998L5.55 7.69998Z" fill="#1D1D1D"/>
</svg>
