<svg width="22" height="22" viewBox="0 0 22 22" fill="none" xmlns="http://www.w3.org/2000/svg">
<path d="M10.0832 16.4432C6.46572 15.9921 3.6665 12.9063 3.6665 9.16665C3.6665 5.11656 6.94975 1.83331 10.9998 1.83331C15.0499 1.83331 18.3332 5.11656 18.3332 9.16665C18.3332 12.9063 15.5339 15.9921 11.9165 16.4432V18.3439C15.5339 18.4286 18.3332 19.0072 18.3332 19.7083C18.3332 20.4677 15.0499 21.0833 10.9998 21.0833C6.94975 21.0833 3.6665 20.4677 3.6665 19.7083C3.6665 19.0072 6.46572 18.4286 10.0832 18.3439V16.4432ZM10.9998 14.6666C14.0374 14.6666 16.4998 12.2042 16.4998 9.16665C16.4998 6.12908 14.0374 3.66665 10.9998 3.66665C7.96227 3.66665 5.49984 6.12908 5.49984 9.16665C5.49984 12.2042 7.96227 14.6666 10.9998 14.6666ZM10.9998 11C9.98729 11 9.1665 10.1792 9.1665 9.16665C9.1665 8.15412 9.98729 7.33331 10.9998 7.33331C12.0124 7.33331 12.8332 8.15412 12.8332 9.16665C12.8332 10.1792 12.0124 11 10.9998 11Z" fill="#979797"/>
</svg>
