<svg width="26" height="26" viewBox="0 0 26 26" fill="none" xmlns="http://www.w3.org/2000/svg">
<path opacity="0.39" d="M24.2693 4.57184L22.3151 4.56548C21.8321 4.5623 21.4444 4.16827 21.4476 3.68528L21.4667 1.90903C21.473 1.42603 21.0822 1.03201 20.5992 1.02883L20.2401 1.02565L11.9117 1.00024C11.6893 1.00342 11.4732 1.08921 11.3111 1.24809L11.0824 1.4737L7.18029 5.28997C7.01187 5.45203 6.91972 5.67762 6.91972 5.90959L6.89431 14.3333C6.89113 14.8132 7.28197 15.204 7.76179 15.204L9.716 15.2104C10.199 15.2135 10.5867 15.6076 10.5835 16.0906L10.5644 17.8668C10.5612 18.3498 10.9489 18.7438 11.4319 18.747L11.7941 18.7502H11.8037L20.113 18.7756H20.1194C20.345 18.7724 20.5611 18.6866 20.7231 18.5278L20.9519 18.3021L24.854 14.4859C25.0224 14.3238 25.1145 14.0982 25.1145 13.8663L25.14 5.44249C25.14 4.96586 24.7491 4.57184 24.2693 4.57184ZM19.5315 14.0696L14.0597 14.0506L12.4614 14.0442C11.9816 14.0442 11.5939 13.6534 11.5939 13.1735L11.6162 6.58007C11.6162 6.10026 12.0038 5.71576 12.4837 5.71258L19.5601 5.73482C20.0399 5.738 20.4276 6.12567 20.4276 6.60866L20.4085 13.2021C20.4054 13.6819 20.0209 14.0664 19.5442 14.0696H19.5315Z" fill="#EBA928"/>
<path d="M6.90726 7.06914L6.91043 5.97287C6.91043 5.97287 6.87548 5.59157 7.22184 5.24521C7.5682 4.89886 10.7712 1.77212 10.7712 1.77212C10.7712 1.77212 11.4353 1.02856 11.9628 1.02856H20.5963C20.5963 1.02856 21.3811 0.942775 21.4637 1.90876C21.4574 2.08352 21.4479 3.73905 21.4479 3.73905C21.4479 3.73905 21.4987 4.58427 22.4456 4.56521C23.3925 4.54614 24.1965 4.57157 24.1965 4.57157C24.1965 4.57157 25.118 4.58428 25.1338 5.4454C25.1497 6.30653 25.1084 13.8692 25.1084 13.8692C25.1084 13.8692 25.0703 14.2314 24.8479 14.4888C24.6254 14.7462 21.0443 18.2065 21.0443 18.2065C21.0443 18.2065 20.5772 18.788 20.0497 18.788C19.5222 18.788 11.483 18.7499 11.483 18.7499C11.483 18.7499 10.7331 18.8452 10.5551 17.9365C10.5551 17.3804 10.571 16.1602 10.571 16.1602C10.571 16.1602 10.5551 15.1529 9.50017 15.2133L7.62539 15.1974C7.62539 15.1974 6.9009 15.1751 6.88184 14.2568L6.8882 11.845" stroke="#D18B1C" stroke-miterlimit="10"/>
<path d="M15.2037 14.0411H12.4011C11.9657 14.0411 11.613 13.6884 11.613 13.2531V6.56428C11.613 6.12895 11.9657 5.77625 12.4011 5.77625H19.6174C20.0527 5.77625 20.4054 6.12895 20.4054 6.56428V13.2531C20.4054 13.4755 20.3132 13.6757 20.1671 13.8187" stroke="#D18B1C" stroke-miterlimit="10"/>
<path d="M19.6174 14.0411H15.2037H12.4011C11.9657 14.0411 11.613 13.6884 11.613 13.2531V6.56428C11.613 6.12895 11.9657 5.77625 12.4011 5.77625H19.6174C20.0527 5.77625 20.4054 6.12895 20.4054 6.56428V13.2531C20.4054 13.5867 20.1988 13.8695 19.9097 13.9839C19.8175 14.0221 19.719 14.0411 19.6174 14.0411Z" stroke="#D18B1C" stroke-miterlimit="10"/>
<path d="M19.0455 10.6728L17.0913 10.6696C16.6083 10.6664 16.2174 10.2724 16.2238 9.78943L16.2397 8.01317C16.2429 7.53018 15.852 7.13616 15.369 7.13298L14.5905 7.1298L6.03012 7.06624C5.80133 7.06306 5.58208 7.15522 5.41685 7.3141L1.286 11.356C1.11759 11.518 1.02544 11.7436 1.02544 11.9756L1.00002 20.3994C0.996842 20.8792 1.38768 21.27 1.86749 21.27L3.8217 21.2764C4.30469 21.2796 4.69236 21.6736 4.68918 22.1566L4.67012 23.9328C4.66694 24.4158 5.05461 24.8098 5.5376 24.813L6.30657 24.8162L14.8987 24.8797C15.1275 24.8797 15.3468 24.7908 15.512 24.6319L19.6397 20.5868C19.8081 20.4248 19.9002 20.1992 19.9002 19.9672L19.9161 11.5435C19.9161 11.0636 19.5253 10.6728 19.0455 10.6728ZM15.2197 19.2173C15.2197 19.7098 14.8225 20.107 14.33 20.107H6.61479C6.12227 20.107 5.72508 19.7098 5.72508 19.2173V12.7319C5.72508 12.2393 6.12227 11.8422 6.61479 11.8422H14.33C14.8225 11.8422 15.2197 12.2393 15.2197 12.7319V19.2173Z" fill="#EBA928" stroke="#D18B1C" stroke-miterlimit="10"/>
</svg>
