<svg width="126" height="18" viewBox="0 0 126 18" fill="none" xmlns="http://www.w3.org/2000/svg">
<path d="M11.0893 1.65525C10.2695 1.39469 9.41475 1.26123 8.51232 1.26123C7.36521 1.26123 6.30073 1.45507 5.31568 1.84273C4.33063 2.2304 3.4568 2.80237 2.69736 3.55545C1.93474 4.30218 1.35324 5.16966 0.952869 6.15789C0.549316 7.14611 0.349121 8.20424 0.349121 9.3291C0.349121 10.454 0.549316 11.5121 0.952869 12.5099C1.35642 13.5044 1.92838 14.3687 2.67829 15.1028C3.43138 15.8495 4.3052 16.4151 5.30296 16.7996C6.10054 17.1078 6.95531 17.2921 7.86727 17.3493L7.05699 14.9185C6.06559 14.696 5.20764 14.2035 4.48633 13.4441C3.46315 12.37 2.94839 11.0037 2.94839 9.34817C2.94839 7.63545 3.47587 6.24366 4.52764 5.16647C5.57942 4.09244 6.94259 3.55227 8.62035 3.55227C9.48783 3.55227 10.3108 3.70161 11.0989 4.00348C11.8837 4.30535 12.6305 4.75339 13.3359 5.35713L13.4725 2.84366C12.7004 2.313 11.906 1.91581 11.0893 1.65525Z" fill="black"/>
<path d="M18.4326 7.03503V12.6308C18.4326 13.5936 18.6328 14.2863 19.03 14.7057C19.4272 15.1252 20.0754 15.3349 20.9683 15.3349C21.8612 15.3349 22.5094 15.1252 22.9066 14.7057C23.3038 14.2863 23.504 13.5936 23.504 12.6308V7.03503H25.7792V11.9508C25.7792 13.8509 25.3979 15.23 24.6384 16.0911C23.8758 16.9491 22.662 17.3812 20.9906 17.3812C19.2937 17.3812 18.064 16.9554 17.3014 16.1039C16.5388 15.2523 16.1606 13.87 16.1606 11.9539V7.03821H18.4326V7.03503Z" fill="black"/>
<path d="M29.3858 16.9711V9.02717H27.6477V7.03482H29.3858V3.27258H31.661V7.03482H33.3991V9.02717H31.661V16.9711H29.3858Z" fill="black"/>
<path d="M34.6257 12.0142C34.6257 11.2866 34.7624 10.6002 35.0388 9.95514C35.3153 9.3101 35.7125 8.73496 36.2272 8.2329C36.7356 7.7372 37.3235 7.35588 37.9876 7.09214C38.6517 6.82523 39.3476 6.69495 40.0721 6.69495C40.8188 6.69495 41.5243 6.8284 42.1852 7.09214C42.8461 7.35906 43.4372 7.7499 43.9615 8.26467C44.4858 8.77308 44.883 9.3514 45.1562 9.99327C45.4295 10.6351 45.5661 11.3088 45.5661 12.0142C45.5661 12.7482 45.4327 13.4346 45.1626 14.0797C44.8925 14.7215 44.5016 15.2903 43.9837 15.7892C43.4403 16.3135 42.8334 16.7107 42.1693 16.9776C41.5052 17.2477 40.8061 17.3811 40.0721 17.3811C39.354 17.3811 38.6613 17.2477 37.9971 16.9776C37.333 16.7075 36.742 16.3198 36.2272 15.8083C35.7029 15.2903 35.3057 14.712 35.0325 14.0701C34.7592 13.4251 34.6257 12.7387 34.6257 12.0142ZM43.1639 12.0333C43.1639 11.1118 42.8684 10.3301 42.2742 9.69142C41.68 9.05273 40.9523 8.73178 40.0944 8.73178C39.2428 8.73178 38.5183 9.05273 37.9209 9.69142C37.3235 10.3301 37.0248 11.1118 37.0248 12.0333C37.0248 12.9548 37.3235 13.7365 37.9209 14.3752C38.5183 15.0139 39.2428 15.3348 40.0944 15.3348C40.9459 15.3348 41.6704 15.0139 42.2678 14.3752C42.8652 13.7365 43.1639 12.958 43.1639 12.0333Z" fill="black"/>
<path d="M48.2894 16.9711V9.02715H46.5513V7.0348H48.2894V4.37199C48.2894 3.05012 48.5627 2.07779 49.1124 1.44863C49.6621 0.819473 50.5105 0.504883 51.664 0.504883C51.9087 0.504883 52.1597 0.523943 52.4171 0.558896C52.6744 0.59385 52.9382 0.651055 53.2019 0.727317V2.78004C53.0208 2.67518 52.8365 2.59572 52.6522 2.54488C52.4679 2.49404 52.2804 2.46544 52.093 2.46544C51.5496 2.46544 51.1556 2.63386 50.9204 2.96751C50.6821 3.30115 50.5646 3.86995 50.5646 4.66434V7.03164H52.9541V9.02397H50.5646V16.9679H48.2894V16.9711Z" fill="black"/>
<path d="M54.8573 16.9711V9.02715H53.1191V7.0348H54.8573V4.37199C54.8573 3.05012 55.1305 2.07779 55.6803 1.44863C56.23 0.819473 57.0784 0.504883 58.2319 0.504883C58.4765 0.504883 58.7276 0.523943 58.985 0.558896C59.2423 0.59385 59.5061 0.651055 59.7698 0.727317V2.78004C59.5887 2.67518 59.4044 2.59572 59.2201 2.54488C59.0358 2.49404 58.8483 2.46544 58.6608 2.46544C58.1175 2.46544 57.7235 2.63386 57.4883 2.96751C57.25 3.30115 57.1324 3.86995 57.1324 4.66434V7.03164H59.522V9.02397H57.1324V16.9679H54.8573V16.9711Z" fill="black"/>
<path d="M83.5096 9.32932C83.5096 10.4192 83.3062 11.4488 82.8963 12.4211C82.4864 13.3934 81.8922 14.2577 81.1105 15.0204C80.3225 15.783 79.4296 16.3645 78.4382 16.7712C77.4468 17.1748 76.4045 17.3781 75.3146 17.3781C74.212 17.3781 73.157 17.1747 72.1561 16.7648C71.1551 16.3549 70.2686 15.7734 69.4996 15.0204C68.7179 14.2577 68.1237 13.3966 67.717 12.4306C67.3103 11.4647 67.1101 10.4319 67.1101 9.32932C67.1101 8.23306 67.3135 7.19716 67.717 6.228C68.1237 5.25566 68.7148 4.38818 69.4996 3.6192C70.2813 2.85658 71.1679 2.27827 72.1624 1.88108C73.1538 1.48388 74.2056 1.28369 75.3178 1.28369C76.4204 1.28369 77.4658 1.48388 78.4572 1.88108C79.4454 2.27827 80.332 2.85976 81.1137 3.6192C81.8954 4.39453 82.4928 5.26837 82.8995 6.24389C83.303 7.2194 83.5096 8.24894 83.5096 9.32932ZM80.9103 9.32932C80.9103 8.55399 80.7673 7.81679 80.4845 7.11772C80.2017 6.41865 79.795 5.79585 79.2643 5.25248C78.7464 4.71547 78.149 4.29922 77.4658 4.01006C76.7858 3.7209 76.0677 3.57473 75.3114 3.57473C74.5583 3.57473 73.8402 3.71771 73.157 4.0037C72.477 4.28968 71.8701 4.70594 71.3395 5.2493C70.8088 5.78631 70.4021 6.40595 70.1224 7.10502C69.8428 7.80408 69.703 8.54445 69.703 9.32614C69.703 10.1015 69.8428 10.8355 70.1224 11.5282C70.4021 12.2209 70.8056 12.8374 71.3395 13.3839C71.8701 13.9273 72.4738 14.3435 73.1538 14.6295C73.8307 14.9155 74.552 15.0585 75.3114 15.0585C76.0582 15.0585 76.7699 14.9155 77.4436 14.6295C78.1172 14.3435 78.7241 13.9273 79.2612 13.3839C79.7918 12.8405 80.1985 12.2177 80.4813 11.525C80.7673 10.8323 80.9103 10.0983 80.9103 9.32932Z" fill="black"/>
<path d="M86.4933 16.9711V9.02715H84.7551V7.0348H86.4933V4.37199C86.4933 3.05012 86.7665 2.07779 87.3163 1.44863C87.866 0.819473 88.7144 0.504883 89.8679 0.504883C90.1125 0.504883 90.3636 0.523943 90.6209 0.558896C90.8783 0.59385 91.1421 0.651055 91.4058 0.727317V2.78004C91.2247 2.67518 91.0404 2.59572 90.8561 2.54488C90.6718 2.49404 90.4843 2.46544 90.2968 2.46544C89.7535 2.46544 89.3594 2.63386 89.1243 2.96751C88.886 3.30115 88.7684 3.86995 88.7684 4.66434V7.03164H91.158V9.02397H88.7684V16.9679H86.4933V16.9711Z" fill="black"/>
<path d="M93.0646 16.9711V9.02715H91.3264V7.0348H93.0646V4.37199C93.0646 3.05012 93.3378 2.07779 93.8875 1.44863C94.4373 0.819473 95.2857 0.504883 96.4391 0.504883C96.6838 0.504883 96.9348 0.523943 97.1922 0.558896C97.4496 0.59385 97.7133 0.651055 97.9771 0.727317V2.78004C97.796 2.67518 97.6117 2.59572 97.4274 2.54488C97.2431 2.49404 97.0556 2.46544 96.8681 2.46544C96.3247 2.46544 95.9307 2.63386 95.6956 2.96751C95.4573 3.30115 95.3397 3.86995 95.3397 4.66434V7.03164H97.7292V9.02397H95.3397V16.9679H93.0646V16.9711Z" fill="black"/>
<path d="M108.889 12.3384H100.945C101.002 13.2663 101.275 13.994 101.771 14.5119C102.267 15.033 102.928 15.2936 103.751 15.2936C104.485 15.2936 105.095 15.1411 105.584 14.8328C106.074 14.5246 106.499 14.0289 106.862 13.3457L108.781 14.4134C108.222 15.4112 107.529 16.1579 106.706 16.6441C105.883 17.1334 104.914 17.3781 103.805 17.3781C102.213 17.3781 100.945 16.8919 100.001 15.9228C99.0574 14.9504 98.5872 13.6571 98.5872 12.0366C98.5872 10.4796 99.0733 9.199 100.049 8.19488C101.024 7.19395 102.276 6.69189 103.805 6.69189C105.403 6.69189 106.652 7.14947 107.545 8.06461C108.438 8.97975 108.886 10.2603 108.886 11.9095V12.3384H108.889ZM106.531 10.81C106.439 10.0982 106.169 9.55488 105.714 9.17992C105.26 8.80497 104.637 8.62069 103.849 8.62069C103.102 8.62069 102.502 8.8018 102.048 9.16404C101.593 9.52628 101.275 10.076 101.094 10.81H106.531Z" fill="black"/>
<path d="M113.531 8.61751C113.776 7.95975 114.1 7.47675 114.5 7.16217C114.901 6.84759 115.4 6.69189 115.994 6.69189C116.315 6.69189 116.633 6.73002 116.941 6.80628C117.252 6.88254 117.557 6.99376 117.859 7.14311L117.042 9.0719C116.845 8.93208 116.636 8.83039 116.41 8.76366C116.185 8.69693 115.93 8.66516 115.651 8.66516C114.898 8.66516 114.354 8.96704 114.027 9.57078C113.7 10.1745 113.534 11.1882 113.534 12.6149V16.9745H111.259V7.01917H113.534V8.61751H113.531Z" fill="black"/>
<path d="M125.406 12.4908C125.012 12.0332 124.357 11.6233 123.442 11.2579C123.242 11.1753 122.956 11.0672 122.584 10.9306C121.463 10.5239 120.878 10.079 120.827 9.58648L118.669 8.81433C118.59 9.07171 118.549 9.35134 118.549 9.65004C118.549 10.2983 118.762 10.8512 119.181 11.3087C119.604 11.7631 120.347 12.2112 121.409 12.6497C121.599 12.7323 121.866 12.8403 122.216 12.9642C123.248 13.3487 123.766 13.8095 123.766 14.3465C123.766 14.7532 123.62 15.071 123.331 15.3061C123.039 15.5381 122.638 15.6588 122.13 15.6588C121.536 15.6588 121.049 15.5286 120.675 15.2712C120.296 15.0138 120.036 14.6357 119.899 14.14L118.012 15.1663C118.374 15.913 118.879 16.4691 119.521 16.8314C120.163 17.1936 120.97 17.3747 121.942 17.3747C123.207 17.3747 124.198 17.0951 124.92 16.5327C125.638 15.9702 126 15.1917 126 14.2003C126 13.5203 125.803 12.9484 125.406 12.4908Z" fill="black"/>
<path d="M12.1699 16.8659C13.0631 16.8659 13.7873 16.1418 13.7873 15.2485C13.7873 14.3552 13.0631 13.6311 12.1699 13.6311C11.2766 13.6311 10.5525 14.3552 10.5525 15.2485C10.5525 16.1418 11.2766 16.8659 12.1699 16.8659Z" fill="#EBA928"/>
<path d="M124.507 9.70096C125.146 9.70096 125.663 9.18311 125.663 8.54432C125.663 7.90553 125.146 7.3877 124.507 7.3877C123.868 7.3877 123.35 7.90553 123.35 8.54432C123.35 9.18311 123.868 9.70096 124.507 9.70096Z" fill="#EBA928"/>
</svg>
