<svg width="24" height="24" viewBox="0 0 24 24" fill="none" xmlns="http://www.w3.org/2000/svg">
<path d="M15.2754 1.97461V3.09961H20.9004V5.15039H19.7754V19.875C19.7754 20.467 19.5656 20.9715 19.1436 21.3936C18.7215 21.8156 18.217 22.0254 17.625 22.0254H6.375C5.78298 22.0254 5.27847 21.8156 4.85645 21.3936C4.43442 20.9715 4.22461 20.467 4.22461 19.875V5.15039H3.09961V3.09961H8.72461V1.97461H15.2754ZM6.27539 19.9746H17.7246V5.15039H6.27539V19.9746ZM16.3584 9.63672L13.5039 12.4922L13.4336 12.5625L16.3584 15.4873L14.9248 16.9209L12 13.9961L11.9297 14.0664L9.07422 16.9209L7.64062 15.4873L10.4961 12.6328L10.5664 12.5625L7.64062 9.63672L9.07422 8.20312L12 11.1289L12.0703 11.0586L14.9248 8.20312L16.3584 9.63672Z" fill="#EFEFEF" stroke="#B7B7B7" stroke-width="0.2"/>
</svg>
