<svg width="22" height="22" viewBox="0 0 22 22" fill="none" xmlns="http://www.w3.org/2000/svg">
<path d="M10.519 13.2691L7.19609 9.94616C7.15026 9.90033 7.11589 9.85067 7.09297 9.7972C7.07005 9.74373 7.05859 9.68644 7.05859 9.62533C7.05859 9.5031 7.10061 9.39616 7.18464 9.30449C7.26866 9.21283 7.37943 9.16699 7.51693 9.16699H14.4836C14.6211 9.16699 14.7319 9.21283 14.8159 9.30449C14.8999 9.39616 14.9419 9.5031 14.9419 9.62533C14.9419 9.65588 14.8961 9.76283 14.8044 9.94616L11.4815 13.2691C11.4051 13.3455 11.3287 13.3989 11.2523 13.4295C11.176 13.46 11.0919 13.4753 11.0003 13.4753C10.9086 13.4753 10.8246 13.46 10.7482 13.4295C10.6718 13.3989 10.5954 13.3455 10.519 13.2691Z" fill="#B7B7B7"/>
</svg>
