<svg width="22" height="22" viewBox="0 0 22 22" fill="none" xmlns="http://www.w3.org/2000/svg">
<path d="M6.87484 10.0833C5.98873 10.0833 5.23248 9.7701 4.60609 9.14371C3.9797 8.51732 3.6665 7.76107 3.6665 6.87496C3.6665 5.98885 3.9797 5.2326 4.60609 4.60621C5.23248 3.97982 5.98873 3.66663 6.87484 3.66663C7.76095 3.66663 8.5172 3.97982 9.14359 4.60621C9.76998 5.2326 10.0832 5.98885 10.0832 6.87496C10.0832 7.76107 9.76998 8.51732 9.14359 9.14371C8.5172 9.7701 7.76095 10.0833 6.87484 10.0833ZM6.87484 8.24996C7.25678 8.24996 7.58143 8.11628 7.8488 7.84892C8.11616 7.58156 8.24984 7.2569 8.24984 6.87496C8.24984 6.49302 8.11616 6.16836 7.8488 5.901C7.58143 5.63364 7.25678 5.49996 6.87484 5.49996C6.49289 5.49996 6.16824 5.63364 5.90088 5.901C5.63352 6.16836 5.49984 6.49302 5.49984 6.87496C5.49984 7.2569 5.63352 7.58156 5.90088 7.84892C6.16824 8.11628 6.49289 8.24996 6.87484 8.24996ZM15.1248 18.3333C14.2387 18.3333 13.4825 18.0201 12.8561 17.3937C12.2297 16.7673 11.9165 16.0111 11.9165 15.125C11.9165 14.2388 12.2297 13.4826 12.8561 12.8562C13.4825 12.2298 14.2387 11.9166 15.1248 11.9166C16.0109 11.9166 16.7672 12.2298 17.3936 12.8562C18.02 13.4826 18.3332 14.2388 18.3332 15.125C18.3332 16.0111 18.02 16.7673 17.3936 17.3937C16.7672 18.0201 16.0109 18.3333 15.1248 18.3333ZM15.1248 16.5C15.5068 16.5 15.8314 16.3663 16.0988 16.0989C16.3662 15.8316 16.4998 15.5069 16.4998 15.125C16.4998 14.743 16.3662 14.4184 16.0988 14.151C15.8314 13.8836 15.5068 13.75 15.1248 13.75C14.7429 13.75 14.4182 13.8836 14.1509 14.151C13.8835 14.4184 13.7498 14.743 13.7498 15.125C13.7498 15.5069 13.8835 15.8316 14.1509 16.0989C14.4182 16.3663 14.7429 16.5 15.1248 16.5ZM4.94984 18.3333L3.6665 17.05L17.0498 3.66663L18.3332 4.94996L4.94984 18.3333Z" fill="#B7B7B7"/>
</svg>
