<svg width="24" height="24" viewBox="0 0 24 24" fill="none" xmlns="http://www.w3.org/2000/svg">
<path d="M11.9995 17C12.2828 17 12.5203 16.9042 12.712 16.7125C12.9037 16.5208 12.9995 16.2833 12.9995 16C12.9995 15.7167 12.9037 15.4792 12.712 15.2875C12.5203 15.0958 12.2828 15 11.9995 15C11.7162 15 11.4787 15.0958 11.287 15.2875C11.0953 15.4792 10.9995 15.7167 10.9995 16C10.9995 16.2833 11.0953 16.5208 11.287 16.7125C11.4787 16.9042 11.7162 17 11.9995 17ZM11.9995 13C12.2828 13 12.5203 12.9042 12.712 12.7125C12.9037 12.5208 12.9995 12.2833 12.9995 12C12.9995 11.7167 12.9037 11.4792 12.712 11.2875C12.5203 11.0958 12.2828 11 11.9995 11C11.7162 11 11.4787 11.0958 11.287 11.2875C11.0953 11.4792 10.9995 11.7167 10.9995 12C10.9995 12.2833 11.0953 12.5208 11.287 12.7125C11.4787 12.9042 11.7162 13 11.9995 13ZM11.9995 9C12.2828 9 12.5203 8.90417 12.712 8.7125C12.9037 8.52083 12.9995 8.28333 12.9995 8C12.9995 7.71667 12.9037 7.47917 12.712 7.2875C12.5203 7.09583 12.2828 7 11.9995 7C11.7162 7 11.4787 7.09583 11.287 7.2875C11.0953 7.47917 10.9995 7.71667 10.9995 8C10.9995 8.28333 11.0953 8.52083 11.287 8.7125C11.4787 8.90417 11.7162 9 11.9995 9ZM19.9995 20H3.99951C3.44951 20 2.97868 19.8042 2.58701 19.4125C2.19535 19.0208 1.99951 18.55 1.99951 18V14C2.54951 14 3.02034 13.8042 3.41201 13.4125C3.80368 13.0208 3.99951 12.55 3.99951 12C3.99951 11.45 3.80368 10.9792 3.41201 10.5875C3.02034 10.1958 2.54951 10 1.99951 10V6C1.99951 5.45 2.19535 4.97917 2.58701 4.5875C2.97868 4.19583 3.44951 4 3.99951 4H19.9995C20.5495 4 21.0203 4.19583 21.412 4.5875C21.8037 4.97917 21.9995 5.45 21.9995 6V10C21.4495 10 20.9787 10.1958 20.587 10.5875C20.1953 10.9792 19.9995 11.45 19.9995 12C19.9995 12.55 20.1953 13.0208 20.587 13.4125C20.9787 13.8042 21.4495 14 21.9995 14V18C21.9995 18.55 21.8037 19.0208 21.412 19.4125C21.0203 19.8042 20.5495 20 19.9995 20ZM19.9995 18V15.45C19.3828 15.0833 18.8953 14.5958 18.537 13.9875C18.1787 13.3792 17.9995 12.7167 17.9995 12C17.9995 11.2833 18.1787 10.6208 18.537 10.0125C18.8953 9.40417 19.3828 8.91667 19.9995 8.55V6H3.99951V8.55C4.61618 8.91667 5.10368 9.40417 5.46201 10.0125C5.82034 10.6208 5.99951 11.2833 5.99951 12C5.99951 12.7167 5.82034 13.3792 5.46201 13.9875C5.10368 14.5958 4.61618 15.0833 3.99951 15.45V18H19.9995Z" fill="#35B167"/>
</svg>
